<svg  xmlns="http://www.w3.org/2000/svg" class="svg-ticket" viewBox="0 0 332.9 494.6">
    <path  d="M325.6 32.2L298.8 5.3c-7.3-7.2-20.3-7-27.2.1l-17.4 17.4-17.4-17.2c-7.3-7.2-19.8-7.3-27.3.1l-17.2 17.2-15.6-15.8c-7.3-7.2-19.8-7.3-27.2.1l-15.6 15.6-15.8-15.7c-7.3-7.2-19.7-7.3-27.2.1L75.2 22.9 59.5 7.1c-7.3-7.2-19.8-7.3-27.2.1l-25 25C2.6 36.9 0 43.1 0 49.8v394.8c0 6.7 2.6 12.9 7.3 17.6l25 25c7.3 7.2 19.8 7.3 27.2-.1l15.6-15.6 15.7 15.7c7.3 7.2 19.8 7.3 27.2-.1l15.6-15.6 15.7 15.7c7.3 7.2 19.8 7.3 27.2-.1l15.6-15.6 17.3 17.3c7.3 7.2 19.8 7.3 27.3-.1l17.2-17.2 17.3 17.3c3.6 3.7 8.6 5.8 13.8 5.8 5.1 0 9.9-2 13.7-5.7l26.7-26.7c4.7-4.7 7.3-11 7.3-17.6V49.8c.2-6.7-2.4-12.9-7.1-17.6zm-14.4 411.9L287.8 468c-.7.7-1.6 2.1-2.6 2.1s-1.9-.4-2.6-1.1l-15-15c-3.6-3.6-8.5-5.6-13.6-5.6-5.2 0-10 2-13.7 5.7l-14.6 14.6c-.7.7-1.6 1.1-2.6 1.1s-1.9-.4-2.6-1.1L206 454.2c-7.3-7.2-19.8-7.3-27.2.1l-13.1 13.1c-1.4 1.4-3.7 1.4-5.2 0l-13.2-13.2c-7.3-7.2-19.7-7.3-27.2.1L107 467.4c-1.4 1.4-3.7 1.4-5.2 0l-13.2-13.2c-7.3-7.2-19.8-7.3-27.2.1l-13.1 12c-1.4 1.4-3.7 2.5-5.2 1l-23.2-23.1V48l23.2-22.6c.7-.7 1.6-1.1 2.6-1.1s1.9.4 2.6 1.1l13.2 13.2c7.3 7.2 19.8 7.3 27.2-.1l13.1-13.1c1.4-1.4 3.7-1.4 5.2 0l13.2 13.2c7.3 7.2 19.8 7.3 27.2-.1l13.1-13.1c1.4-1.4 3.7-1.4 5.2 0l13.2 13.2c7.3 7.2 19.7 7.3 27.2-.1l14.6-14.6c.7-.7 1.6-1.1 2.6-1.1s1.9.4 2.6 1.1l14.6 14.6c7.3 7.3 19.8 7.4 27.3 0l14.9-14.9c.7-.7 1.6-1.1 2.6-1.1s1.9.4 2.6 1.1L311.2 46v398.1zM249.4 308H78.3c-9.2 0-16.6 3.4-16.6 12.5 0 9.2 7.4 12.5 16.6 12.5h171.1c9.2 0 16.6-3.3 16.6-12.5 0-9.1-7.4-12.5-16.6-12.5zm0 63H78.3c-9.2 0-16.6 3.2-16.6 12.4S69.1 396 78.3 396h171.1c9.2 0 16.6-3.4 16.6-12.6s-7.4-12.4-16.6-12.4zm-97.7-98v-25.3c-14.5-.3-29.5-4.8-38.3-11l6-16.8c9 6 22 10.8 36 10.8 17.8 0 29.8-10.3 29.8-24.5 0-13.8-9.8-22.3-28.3-29.8-25.5-10-41.3-21.5-41.3-43.3 0-20.7 14.8-36.5 37.8-40.2V67.7h15.5V92c15 .5 25.3 4.5 32.5 8.8l-6.3 16.5c-5.3-3-15.5-8.5-31.5-8.5-19.3 0-26.5 11.5-26.5 21.5 0 13 9.3 19.5 31 28.5 25.8 10.5 38.8 23.5 38.8 45.8 0 19.8-13.8 38.3-39.5 42.5v26h-15.7z"/>
</svg>
